<svg xmlns="http://www.w3.org/2000/svg" width="2500" height="2500" viewBox="0 0 2499.9 2500">
  <defs>
    <radialGradient id="a" cx="332.1" cy="2511.8" r="3263.5" gradientUnits="userSpaceOnUse">
      <stop offset=".1" stop-color="#fa8f21"/>
      <stop offset=".8" stop-color="#d82d7e"/>
    </radialGradient>
    <radialGradient id="b" cx="1516.1" cy="2623.8" r="2572.1" gradientUnits="userSpaceOnUse">
      <stop offset=".6" stop-color="#8c3aaa" stop-opacity="0"/>
      <stop offset="1" stop-color="#8c3aaa"/>
    </radialGradient>
  </defs>
  <path fill="url(#a)" d="M833.4 1250a416.6 416.6 0 1 1 833.3-.1 416.6 416.6 0 0 1-833.3.1m-225.3 0a641.8 641.8 0 1 0 1283.7 0 641.8 641.8 0 0 0-1283.7 0m1159.2-667.3a150 150 0 1 0 150-150 150 150 0 0 0-150 150M745 2267.5c-121.9-5.6-188.1-25.9-232.1-43-58.4-22.8-100-49.8-143.8-93.5s-70.9-85.4-93.5-143.7c-17.2-44-37.5-110.3-43-232.1-6-131.8-7.3-171.4-7.3-505.2s1.3-373.3 7.3-505.1c5.5-122 26-188 43-232.2 22.7-58.3 49.8-100 93.5-143.8s85.3-70.8 143.8-93.5c44-17.1 110.2-37.4 232.1-43 131.8-6 171.3-7.2 505-7.2s373.3 1.3 505.1 7.2c122 5.6 188 26 232.2 43 58.3 22.7 100 49.8 143.8 93.5s70.7 85.5 93.5 143.8c17.1 44 37.4 110.3 43 232.2 6 131.8 7.2 171.3 7.2 505.1s-1.2 373.3-7.2 505.2c-5.6 121.8-26 188-43 232-22.8 58.4-49.8 100-93.5 143.8s-85.5 70.7-143.8 93.5c-44 17.1-110.3 37.4-232.1 43-131.8 6-171.4 7.2-505.2 7.2s-373.3-1.2-505-7.2M734.6 7.5c-133 6.1-224 27.2-303.4 58.1-82.2 32-151.8 74.8-221.4 144.2S97.5 349 65.6 431.2c-30.9 79.5-52 170.4-58 303.5C1.4 867.9 0 910.5 0 1250s1.4 382 7.6 515.4c6 133 27.1 223.9 58 303.4 32 82.1 74.7 152 144.2 221.4s139.2 112.2 221.4 144.2c79.6 30.9 170.4 52 303.5 58 133.3 6 175.8 7.6 515.3 7.6s382-1.4 515.4-7.6c133-6 223.9-27.1 303.4-58 82.1-32 151.8-74.8 221.4-144.2s112.2-139.2 144.2-221.4c30.9-79.5 52-170.4 58-303.4 6-133.4 7.5-176 7.5-515.4s-1.4-382-7.5-515.4c-6-133-27.1-224-58-303.4-32-82.2-74.8-151.8-144.2-221.4S2150.9 97.5 2068.9 65.6c-79.6-30.9-170.5-52-303.4-58-133.3-6-176-7.6-515.4-7.6S868 1.4 734.7 7.6"/>
  <path fill="url(#b)" d="M833.4 1250a416.6 416.6 0 1 1 833.3-.1 416.6 416.6 0 0 1-833.3.1m-225.3 0a641.8 641.8 0 1 0 1283.7 0 641.8 641.8 0 0 0-1283.7 0m1159.2-667.3a150 150 0 1 0 150-150 150 150 0 0 0-150 150M745 2267.5c-121.9-5.6-188.1-25.9-232.1-43-58.4-22.8-100-49.8-143.8-93.5s-70.9-85.4-93.5-143.7c-17.2-44-37.5-110.3-43-232.1-6-131.8-7.3-171.4-7.3-505.2s1.3-373.3 7.3-505.1c5.5-122 26-188 43-232.2 22.7-58.3 49.8-100 93.5-143.8s85.3-70.8 143.8-93.5c44-17.1 110.2-37.4 232.1-43 131.8-6 171.3-7.2 505-7.2s373.3 1.3 505.1 7.2c122 5.6 188 26 232.2 43 58.3 22.7 100 49.8 143.8 93.5s70.7 85.5 93.5 143.8c17.1 44 37.4 110.3 43 232.2 6 131.8 7.2 171.3 7.2 505.1s-1.2 373.3-7.2 505.2c-5.6 121.8-26 188-43 232-22.8 58.4-49.8 100-93.5 143.8s-85.5 70.7-143.8 93.5c-44 17.1-110.3 37.4-232.1 43-131.8 6-171.4 7.2-505.2 7.2s-373.3-1.2-505-7.2M734.6 7.5c-133 6.1-224 27.2-303.4 58.1-82.2 32-151.8 74.8-221.4 144.2S97.5 349 65.6 431.2c-30.9 79.5-52 170.4-58 303.5C1.4 867.9 0 910.5 0 1250s1.4 382 7.6 515.4c6 133 27.1 223.9 58 303.4 32 82.1 74.7 152 144.2 221.4s139.2 112.2 221.4 144.2c79.6 30.9 170.4 52 303.5 58 133.3 6 175.8 7.6 515.3 7.6s382-1.4 515.4-7.6c133-6 223.9-27.1 303.4-58 82.1-32 151.8-74.8 221.4-144.2s112.2-139.2 144.2-221.4c30.9-79.5 52-170.4 58-303.4 6-133.4 7.5-176 7.5-515.4s-1.4-382-7.5-515.4c-6-133-27.1-224-58-303.4-32-82.2-74.8-151.8-144.2-221.4S2150.9 97.5 2068.9 65.6c-79.6-30.9-170.5-52-303.4-58-133.3-6-176-7.6-515.4-7.6S868 1.4 734.7 7.6"/>
</svg>
