<svg xmlns="http://www.w3.org/2000/svg" width="2500" height="1756" viewBox="5.24 13.43 54.05 37.95">
  <path fill="#fff" d="M41.27 31.81c-4.94-2.64-9.67-5.07-14.5-7.6v15.16c5.08-2.77 10.45-5.3 14.52-7.56z"/>
  <path fill="#e8e0e0" d="M41.27 31.81a1838.9 1838.9 0 0 0-14.5-7.6l12.75 8.57 1.75-.97z"/>
  <path fill="#cd201f" d="M27.7 51.24c-10.27-.19-13.78-.36-15.94-.8a7 7 0 0 1-3.65-1.9 7.7 7.7 0 0 1-1.73-3.34c-.38-1.27-.53-2.32-.74-4.9a116.4 116.4 0 0 1 0-15.88c.33-2.94.49-6.42 2.68-8.45a7.2 7.2 0 0 1 3.6-1.82c2.1-.4 11.1-.72 20.42-.72 9.3 0 18.31.32 20.42.72a7.03 7.03 0 0 1 4.2 2.5c2 3.14 2.04 7.05 2.24 10.11.09 1.46.09 9.74 0 11.2-.31 4.83-.57 6.54-1.28 8.32a6.13 6.13 0 0 1-1.48 2.36 7.08 7.08 0 0 1-3.76 1.93c-8.88.66-16.43.8-24.99.67zm13.6-19.43c-4.95-2.64-9.68-5.09-14.52-7.63v15.17c5.1-2.77 10.46-5.3 14.53-7.56z"/>
</svg>
