<svg xmlns="http://www.w3.org/2000/svg" id="Layer_1" data-name="Layer 1" viewBox="0 0 139 178">
  <defs>
    <style>
      .cls-1,.cls-2{fill:#303a44;stroke:#303a44;stroke-linecap:round;stroke-linejoin:round;stroke-width:4px}.cls-2{fill:none}
    </style>
  </defs>
  <path d="M78.7 163.9H115c15 0 19-10 19-10v-24.5c0-13.6-11-24.5-24.5-24.5l-17.3-4c0 12.5-22.7 22.7-22.7 22.7S46.7 113.4 46.7 101l-17.2 4C16 104.9 5 115.9 5 129.4v24.5s5.3 10 19 10h36.5" style="stroke:#b10216;fill:none;stroke-linejoin:round;stroke-width:4px"/>
  <path d="M41.8 32.1v34.5a27.7 27.7 0 1 0 55.5 0V32.1H41.8Z" class="cls-2"/>
  <path d="M107.5 45.5S46.5 43.1 54 24A28.7 28.7 0 0 1 91.5 8.1c14.8 6 19.3 28.8 16 37.4Z" class="cls-1"/>
  <path d="M40.2 43.6s42-21.7 30.3-32.6C61.5 2.6 47.5 3 39 12c-8.3 9-4 26.6 1.2 31.5Z" class="cls-1"/>
  <path d="m69.5 130.2-9-12.1h18l-9 12.1z" class="cls-2"/>
  <path d="m69.5 173-11-12.1 11-30.7 11 30.7-11 12.1z" class="cls-1"/>
</svg>
