<svg xmlns="http://www.w3.org/2000/svg" id="Layer_1" data-name="Layer 1" viewBox="0 0 165.8 166.6">
  <defs>
    <style>
      .cls-1{fill:#303a44;stroke:#303a44;stroke-linecap:round;stroke-linejoin:round;stroke-width:4px}.cls-2{fill:none;stroke:#b10216;stroke-miterlimit:4;stroke-width:4px}.cls-3{fill:#fff;stroke-width:0}
    </style>
  </defs>
  <path d="m5 161.6 2.4-12.5 10.1 10.1L5 161.6z" class="cls-1"/>
  <path d="m103.2 62.6-70.1 70M8 148.5l10.1 10 23.7-5.8L157.3 37.2c2-2 2-5.1 0-7L135.6 8.4a5 5 0 0 0-7 0L13 123.9l-5 24.6Z" class="cls-2"/>
  <path d="m86.4 41.1 16.5-16.4L141 62.9l-16.5 16.4z" class="cls-1"/>
  <path d="M110.8 60.3a3.8 3.8 0 0 1-5.3-5.3l11.2-11.2A3.8 3.8 0 0 1 122 49l-11.2 11.2ZM96.6 46.1a3.8 3.8 0 0 1-5.3-5.3l11.2-11.2a3.8 3.8 0 0 1 5.3 5.3L96.6 46.1ZM125 74.4a3.8 3.8 0 0 1-5.3-5.3L130.7 58a3.8 3.8 0 0 1 5.3 5.3L125 74.4Z" class="cls-3"/>
  <path d="m17.1 119.9 28.8 28.8" class="cls-2"/>
</svg>
