<svg xmlns="http://www.w3.org/2000/svg" id="Layer_1" data-name="Layer 1" viewBox="0 0 168 166">
  <defs>
    <style>
      .cls-1,.cls-2{fill:none;stroke-linejoin:round;stroke-width:4px}.cls-1{stroke:#303a44;stroke-linecap:round}.cls-2{stroke:#b10216}
    </style>
  </defs>
  <path d="M122.3 51.3H163V152h-40.7z" class="cls-1"/>
  <path d="M45.7 72.4H19M45.7 92.4H19M45.7 112.4H19M45.7 132.4H19M149 72.4h-26.7M149 92.4h-26.7M149 112.4h-26.7M149 132.4h-26.7" class="cls-2"/>
  <path d="M5 51.3h40.7V152H5zM45.7 5h76.7v156H45.7z" class="cls-1"/>
  <path d="M56.3 23h55.4M56.3 43.2h55.4M56.3 63.4h55.4M56.3 83.7h55.4M56.3 103.9h55.4M56.3 124.1h55.4M56.3 144.3h55.4" class="cls-2"/>
</svg>
