<svg xmlns="http://www.w3.org/2000/svg" id="Layer_1" data-name="Layer 1" viewBox="0 0 185 157.4">
  <defs>
    <style>
      .cls-1{fill:none;stroke:#b10216;stroke-linejoin:round;stroke-width:4px}.cls-3{stroke-width:0;fill:#fff}
    </style>
  </defs>
  <circle cx="92.5" cy="78.7" r="58.5" style="stroke-width:0;fill:#303a44"/>
  <path d="M53.8 102.8v-7.1l6.5-5.9c11-9.8 16.3-15.4 16.4-21.3 0-4-2.4-7.3-8.2-7.3-4.3 0-8.1 2.2-10.8 4.2L54.4 57c3.8-2.9 9.7-5.2 16.5-5.2 11.3 0 17.6 6.6 17.6 15.7 0 8.5-6.1 15.2-13.4 21.7L70.5 93v.2h18.9v9.6H53.8ZM117.4 102.8v-12H95.2v-7.6l19-30.6h14.3V82h6v8.8h-6v12h-11.1Zm0-20.8V71c0-3 .1-6.2.4-9.4h-.3l-4.6 9.3-6.8 11v.1h11.3Z" class="cls-3"/>
  <path d="M48.7 21.9a71.7 71.7 0 0 1 115.4 56.8M25.3 53.4c.8-2 1.6-4 2.6-6" class="cls-1"/>
  <path d="m179.4 60.2-14.5 19.3L145.6 65M5.6 100.7l15-19.9 20 15" class="cls-1"/>
  <path d="M136.3 135.2a71.7 71.7 0 0 1-116-56.5M151 119.7c-3.3 4.7-7 9-11.3 12.7M159.2 104a69 69 0 0 1-3 7" class="cls-1"/>
</svg>
