<svg xmlns="http://www.w3.org/2000/svg" id="Layer_1" data-name="Layer 1" viewBox="0 0 166.3 182.6">
  <defs>
    <style>
      .cls-2{stroke-linejoin:round;fill:none;stroke:#b10216;stroke-width:4px}
    </style>
  </defs>
  <path d="m70.1 111.8-.6-1-.6-1-.2-.3c-12.2-19.3-28-22.8-32.5-31.6-4.9-9.6-2-15.7-8.2-28-4.6-9-12.8-13.9-18.3-11S3.4 51.2 8 60c6.3 12.4 13 13.5 17.9 23 4.5 8.9-2 23.7 6.5 44.9l.2.4.4 1 .5 1.1c0 .3.2.5.3.8a57.7 57.7 0 0 0 1.6 3.1c6.7 12.5 16.7 21 25.5 22.4a69 69 0 0 0 14.5-7.4c3.9-8 3-21-3.2-33.8l-.6-1.1-1-2-.5-.7ZM149.9 126.3a42.3 42.3 0 0 0 .4-2.2l.1-.4c4-22.5-5.4-35.7-2.8-45.3 2.8-10.3 9-12.8 12.7-26.2 2.6-9.7-.1-18.8-6-20.4s-13 4.8-15.7 14.5c-3.6 13.4.6 18.8-2.2 29.1C133.8 85 119 91.6 111 113l-.2.4c0 .4-.2.7-.3 1.1l-.4 1c0 .4-.2.6-.3 1a62.5 62.5 0 0 0-.9 3.3c-3.4 13.7-1.7 26.7 3.8 33.7a66 66 0 0 0 15.7 4.2c8.3-3.2 16.3-13.5 20.3-27.1l.4-1.3.5-2.1.2-.9Z" class="cls-2"/>
  <path d="m104.3 94.2-.2-1.1-.2-1.2-.1-.4c-5-22.3-18.6-31-19.9-40.7-1.3-10.7 3.6-15.4 1.8-29.2-1.2-10-7.2-17.3-13.4-16.5-6.1.7-10.1 9.4-8.9 19.3 1.8 13.8 7.7 17.2 9 27.8 1.3 9.8-9.8 21.6-9 44.4v1.6l.1 1.1v1l.3 2 .2 1.4c2 14 8.6 25.3 16.3 29.7a67.5 67.5 0 0 0 16.2-2c6.4-6.2 9.9-18.8 8.4-32.9l-.1-1.3-.3-2.2-.2-.8ZM25.3 79.6l10.1-5.2M30.3 90.8l10-5.2M72.1 46.3l11.2-1.7M73.1 58.5l11.2-1.6M138.9 70l11.8 3.6M133.4 80.9l13.9 4.4" class="cls-2"/>
  <circle cx="92.6" cy="136.2" r="43.9" style="stroke-linejoin:round;fill:#303a44;stroke:#303a44;stroke-width:5px"/>
</svg>
