<svg xmlns="http://www.w3.org/2000/svg" id="Layer_1" data-name="Layer 1" viewBox="0 0 135.6 150.9">
  <defs>
    <style>
      .cls-1{fill:#303a44;stroke-width:0}.cls-2{fill:none;stroke:#b10216;stroke-linejoin:round;stroke-width:4px}
    </style>
  </defs>
  <circle cx="69" cy="75.5" r="27.3" class="cls-1"/>
  <path d="M83 41.5C80.3 19.7 75 5 69 5c-8.8 0-16 31.5-16 70.5s7.2 70.4 16 70.4c6 0 11.3-14.7 14-36.5" class="cls-2"/>
  <path d="M46.6 46.4C26.4 37.8 11 35 8 40.1c-4.4 7.7 19.4 29.6 53 49 33.7 19.5 64.6 29.1 69 21.5 3-5.2-7-17.1-24.6-30.4" class="cls-2"/>
  <path d="M32.6 80.3C15.1 93.6 5 105.5 8 110.7c4.4 7.6 35.3-2 69-21.4 33.7-19.5 57.4-41.4 53-49-3-5.3-18.4-2.5-38.5 6" class="cls-2"/>
  <circle cx="13.2" cy="53" r="13.2" class="cls-1"/>
  <circle cx="59.4" cy="131.3" r="13.2" class="cls-1"/>
  <circle cx="109.5" cy="39.9" r="13.2" class="cls-1"/>
</svg>
