<svg xmlns="http://www.w3.org/2000/svg" style={{ width: '100%', height: 'auto', display: 'block' }} preserveAspectRatio="xMidYMid meet" viewBox="0 0 160 160">
  <rect width="122.5" height="122.5" x="18.8" y="18.8" rx="10" ry="10" fill="#b10216"/>
  <path fill="none" stroke="#b10216" stroke-width="4px" d="M149.2 143.5c2.4-3.5 3.8-7.7 3.8-12.3M106 153h25.2c2.5 0 4.8-.4 7-1.1M153 95.9V28.8c0-12-9.8-21.8-21.8-21.8H28.8C16.8 7 7 16.7 7 28.8v102.4c0 12 9.7 21.8 21.8 21.8H99"/>
  <path fill="#fff" d="M111.3 41.8h-63a7.8 7.8 0 0 0-7.8 7.8v61.1c0 4.4 3.5 7.9 7.8 7.9h63c4.3 0 7.8-3.5 7.8-7.9V49.6c0-4.3-3.5-7.8-7.8-7.8Zm-1.5 22.8H98.3c-1.3-1.6-2.9-3-4.6-4.2V51h16v13.5Zm-30 .7a14.8 14.8 0 1 1 0 29.7 14.8 14.8 0 0 1 0-29.7ZM50 109.2v-37H57a24.2 24.2 0 1 0 46.2 1.7h6.6v35.3H49.9Z"/>

</svg>
