<svg xmlns="http://www.w3.org/2000/svg" id="Layer_1" data-name="Layer 1" viewBox="0 0 160 160">
  <defs>
    <style>
      .cls-1{fill:none;stroke:#b10216;stroke-miterlimit:4;stroke-width:4px}
    </style>
  </defs>
  <rect width="122.5" height="122.5" x="18.8" y="18.8" rx="10" ry="10" style="stroke-width:0;fill:#303a44"/>
  <path d="M149.2 143.5c2.4-3.5 3.8-7.7 3.8-12.3M106 153h25.2c2.5 0 4.8-.4 7-1.1M153 95.9V28.8c0-12-9.8-21.8-21.8-21.8H28.8C16.8 7 7 16.7 7 28.8v102.4c0 12 9.7 21.8 21.8 21.8H99" class="cls-1"/>
  <path d="M58.2 79.4c.1 1.5-1 8-2.6 8S43 83.1 43 65.8s15.5-33.7 39-33.7 35 17.1 35 32-8.4 36.3-28.6 36.3C78 100.4 74.1 94 74.1 94s-3.5 12.8-4.4 15.6c-.9 2.8-10 19.3-11.3 18.4s-.8-15.9.2-21c1-5.2 6.5-27.9 7-29.7.6-1.8-3.3-9 .2-17.5C69.3 51 81 51.4 82 58.9s-10.7 28.3.4 31.5 21.2-9.9 21.2-27.8-18.3-24.3-30.9-20c-12.6 4.2-19 14.8-19 24.5s4.4 11 4.4 12.3Z" style="fill:#fff;stroke-width:0"/>
</svg>
