<svg xmlns="http://www.w3.org/2000/svg" id="Layer_1" data-name="Layer 1" viewBox="0 0 160 160">
  <defs>
    <style>
      .cls-1{fill:none;stroke:#b10216;stroke-miterlimit:4;stroke-width:4px}
    </style>
  </defs>
  <rect width="122.5" height="122.5" x="18.8" y="18.8" rx="10" ry="10" style="stroke-width:0;fill:#303a44"/>
  <path d="M149.2 143.5c2.4-3.5 3.8-7.7 3.8-12.3M106 153h25.2c2.5 0 4.8-.4 7-1.1M153 95.9V28.8c0-12-9.8-21.8-21.8-21.8H28.8C16.8 7 7 16.7 7 28.8v102.4c0 12 9.7 21.8 21.8 21.8H99" class="cls-1"/>
  <path d="M120.6 54.3a25 25 0 0 1-5.5 1.6c1.6-2.4 2.9-5.2 3.6-8.1-3 2-6.3 3.2-10 3.8-3.2-3-7.5-4.9-12.2-4.9-10 0-18 8.1-18 18l-.1 3a54.7 54.7 0 0 1-35.5-18.6 20.8 20.8 0 0 0 4.4 22.5 60 60 0 0 1-7.8-2.3 22.8 22.8 0 0 0 12.5 18c-2 .2-3.9.4-5.8.4A22.9 22.9 0 0 0 61 99.3a42.6 42.6 0 0 1-17.6 7.5 48 48 0 0 0 71-44.1c2.6-2.3 4.8-5.1 6.2-8.4Z" style="fill:#fff;stroke-width:0"/>
</svg>
