<svg xmlns="http://www.w3.org/2000/svg" width="2500" height="2500" viewBox="0 0 2499.9 2500">
  <defs>
    <radialGradient id="a" cx="332.1" cy="2511.8" r="3263.5" gradientUnits="userSpaceOnUse">
      <stop offset=".1" stop-color="#fa8f21"/>
      <stop offset=".8" stop-color="#252525"/>
    </radialGradient>
  </defs>
  <path fill="url(#a)" d="M833 1250a417 417 0 1 1 834 0 417 417 0 0 1-834 0m-225 0a642 642 0 1 0 1284 0 642 642 0 0 0-1284 0m1159-667a150 150 0 1 0 150-150 150 150 0 0 0-150 150M745 2267c-122-5-188-25-232-43-58-22-100-49-144-93s-71-85-93-144c-18-44-38-110-43-232-6-132-8-171-8-505s2-373 8-505c5-122 26-188 43-232 22-59 49-100 93-144s85-71 144-94c44-17 110-37 232-43 132-6 171-7 505-7s373 1 505 7c122 6 188 26 232 43 59 23 100 50 144 94s71 85 94 144c17 44 37 110 43 232 6 132 7 171 7 505s-1 373-7 505c-6 122-26 188-43 232-23 59-50 100-94 144s-85 71-144 93c-44 18-110 38-232 43-132 7-171 8-505 8s-373-1-505-8M735 8c-133 6-224 27-304 58-82 32-152 74-221 144S98 349 66 431C35 511 14 602 8 735c-7 133-8 176-8 515s1 382 8 515c6 133 27 224 58 304 32 82 74 152 144 221s139 112 221 144c80 31 171 52 304 58s176 8 515 8 382-1 515-8c133-6 224-27 304-58 82-32 152-74 221-144s112-139 144-221c31-80 52-171 58-304s8-176 8-515-2-382-8-515-27-224-58-304c-32-82-74-152-144-221S2151 98 2069 66c-80-31-171-52-304-58s-175-8-515-8-382 1-515 8"/>
  <path fill="#252525" d="M833 1250a417 417 0 1 1 834 0 417 417 0 0 1-834 0m-225 0a642 642 0 1 0 1284 0 642 642 0 0 0-1284 0m1159-667a150 150 0 1 0 150-150 150 150 0 0 0-150 150M745 2267c-122-5-188-25-232-43-58-22-100-49-144-93s-71-85-93-144c-18-44-38-110-43-232-6-132-8-171-8-505s2-373 8-505c5-122 26-188 43-232 22-59 49-100 93-144s85-71 144-94c44-17 110-37 232-43 132-6 171-7 505-7s373 1 505 7c122 6 188 26 232 43 59 23 100 50 144 94s71 85 94 144c17 44 37 110 43 232 6 132 7 171 7 505s-1 373-7 505c-6 122-26 188-43 232-23 59-50 100-94 144s-85 71-144 93c-44 18-110 38-232 43-132 7-171 8-505 8s-373-1-505-8M735 8c-133 6-224 27-304 58-82 32-152 74-221 144S98 349 66 431C35 511 14 602 8 735c-7 133-8 176-8 515s1 382 8 515c6 133 27 224 58 304 32 82 74 152 144 221s139 112 221 144c80 31 171 52 304 58s176 8 515 8 382-1 515-8c133-6 224-27 304-58 82-32 152-74 221-144s112-139 144-221c31-80 52-171 58-304s8-176 8-515-2-382-8-515-27-224-58-304c-32-82-74-152-144-221S2151 98 2069 66c-80-31-171-52-304-58s-175-8-515-8-382 1-515 8"/>
</svg>
