<svg xmlns="http://www.w3.org/2000/svg" width="1899" height="2500" viewBox="0 0 926.7 1220">
  <path d="M24 587C4 619-4 719 2 785c3 22 7 40 12 51 8 15 22 24 37 24 9 1 16-1 198-60l82-26c20-5 34-24 35-47 1-25-11-46-32-54l-57-23C80 569 72 566 62 566c-16-1-29 7-38 21m438 603c4-9 4-15 4-207l1-86c1-20-12-39-34-48-23-9-47-3-61 14l-40 47c-138 162-143 169-147 179-2 5-2 11-2 17 1 9 5 17 11 25 32 38 185 94 234 86 17-3 29-12 34-27m311-66c46-19 146-147 153-196 3-17-3-32-14-41-8-6-14-8-197-68l-81-27c-19-8-41-1-56 18a52 52 0 0 0-5 62l32 52c108 176 116 189 124 195 12 9 28 11 44 5m-95-453c208-50 216-53 224-59 12-8 19-22 18-39v-2c-6-51-95-183-139-205-16-7-31-7-44 2-8 5-14 13-125 165l-51 69c-13 16-13 39 0 59s36 30 56 24v2c10-4 28-8 61-16M470 500c-3-83-28-448-31-465-4-16-16-27-33-31-53-13-256 44-293 82-12 13-17 28-13 42 6 12 256 406 256 406 37 60 68 51 78 48 9-3 40-12 36-82" style="fill:#252525"/>
</svg>
