<svg xmlns="http://www.w3.org/2000/svg" width="345.7" height="443.2">
  <defs>
    <style>
      .d,.e{fill:#252525}
    </style>
  </defs>
  <path d="M313.5 122.5h49.9a27 27 0 0 0 27.1-27.1V45.5a27 27 0 0 0-27.1-27.1h-49.9a27 27 0 0 0-27.1 27.1v49.9c.4 15.1 12 27.1 27.1 27.1ZM264.6 148.3a30.8 30.8 0 0 0-30.7-30.7h-56a30.8 30.8 0 0 0-30.8 30.7v56.5a30.7 30.7 0 0 0 30.7 30.3H234a30.4 30.4 0 0 0 30.7-30.3ZM228.6 280.5h-34.8a18.8 18.8 0 0 0-18.6 18.7v34.7a18.8 18.8 0 0 0 18.6 18.7h34.8a18.8 18.8 0 0 0 18.6-18.7v-34.7a18.8 18.8 0 0 0-18.6-18.7Z" style="fill:#252525" transform="translate(-147.1 -18.4)"/>
  <path d="M323.5 66.3H295A15 15 0 0 0 280 81.4V110A15 15 0 0 0 295 125h28.5c8.5 0 15.6-7 15.1-15V81.3c-.4-8.4-6.6-15.1-15.1-15.1ZM174 358.2h-40.5a22.3 22.3 0 0 0-22.3 22.3v40.9c0 12 10.3 21.8 22.3 21.8h41a22.3 22.3 0 0 0 22.2-22.2v-40.5a23 23 0 0 0-22.7-22.3Z" class="d"/>
  <path d="M234.5 162a81 81 0 0 0-81.4 81 81 81 0 0 0 80.5 81.4h.9c21.8 0 42.3-8.5 56-23.1a15 15 0 0 0 5-10.3 14.2 14.2 0 0 0-13.8-13.8c-4 0-8 2.7-10.7 5.4a50 50 0 0 1-37 14.2 54.1 54.1 0 0 1-53.8-44.5h123.3a1.6 1.6 0 0 0 1.3-.4 14.2 14.2 0 0 0 10.7-13.8c-.5-40.5-37.8-76.1-81-76.1Zm-52 64.5a54.8 54.8 0 0 1 52-37.8c24.5 0 45 15.5 51.6 37.8ZM316 322.6a2 2 0 0 1-1.8-1.8v-17.3h-3.6a2 2 0 0 1-1.8-1.8 2 2 0 0 1 1.8-1.8h11.1a1.8 1.8 0 0 1 0 3.6h-4v17.3a1.6 1.6 0 0 1-1.8 1.8Zm20.4 0c-.9 0-1.3-.9-1.8-1.3l-4.9-14.3v14.3a2 2 0 0 1-1.7 1.8 2 2 0 0 1-1.8-1.8v-18.7a2.9 2.9 0 0 1 2.6-2.7 2.4 2.4 0 0 1 2.3 2.2l4.9 14.3 4.9-14.3a5.4 5.4 0 0 1 2.2-2.2 2.9 2.9 0 0 1 2.6 2.7v18.7a2 2 0 0 1-1.7 1.8 2 2 0 0 1-1.8-1.8V307l-2.7 8.5-1.3 5.8c-.5.9-1 1.3-1.8 1.3Z" class="e"/>
</svg>
