<svg xmlns="http://www.w3.org/2000/svg" width="2500" height="1756" viewBox="5.2 13.4 54 37.9">
  <path fill="#fff" d="m41.3 31.8-14.5-7.6v15.2c5-2.8 10.4-5.3 14.5-7.6z"/>
  <path fill="#252525" d="m41.3 31.8-14.5-7.6 12.7 8.6 1.8-1z"/>
  <path fill="#252525" d="M27.7 51.2c-10.3-.1-13.8-.3-16-.8a7 7 0 0 1-3.6-1.9 7.7 7.7 0 0 1-1.7-3.3c-.4-1.3-.5-2.3-.8-4.9-.3-5.8-.4-10.6 0-15.9.4-3 .5-6.4 2.7-8.4 1-1 2.3-1.6 3.6-1.8 2.1-.4 11.1-.8 20.4-.8 9.3 0 18.4.4 20.5.8a7 7 0 0 1 4.2 2.4c2 3.2 2 7.1 2.2 10.2V38c-.3 4.8-.6 6.5-1.3 8.3a6.1 6.1 0 0 1-1.5 2.3 7 7 0 0 1-3.7 2c-8.9.6-16.4.8-25 .6zm13.6-19.4-14.5-7.6v15.2c5-2.8 10.4-5.4 14.5-7.6z"/>
</svg>
