<svg xmlns="http://www.w3.org/2000/svg" width="1899" height="2500" viewBox="0 0 926.7 1220">
  <path d="M23.6 587.4C3.8 619.1-4.5 718.8 2.4 784.9c2.4 21.8 6.4 40 12.1 50.9 7.9 15 21.2 24 36.3 24.5 9.7.5 15.8-1.2 198.3-59.9l81.5-26.1c20.2-5.2 33.9-23.8 35.2-47.5 1.3-24.4-11.2-45.9-32-53.6l-57.3-23.3C80.3 569 71.5 565.8 61.6 565.7c-15.2-.5-28.6 7.1-38 21.7m438.8 602.9c3.2-9.2 3.6-15.5 4.1-207.3l.5-85.6c1.3-20.8-12.1-39.7-34.1-48.2-22.7-8.7-47.1-3.3-60.8 13.7 0 0-40 47.5-40.2 47.5-137.4 161.4-143.2 168.9-146.5 178.4a39 39 0 0 0-2.2 17.6c.8 8.6 4.7 17 11.1 24.9 31.9 37.9 184.7 94.1 233.5 85.7 17.1-2.9 29.4-12.4 34.6-26.7m310.1-66.7c46.1-18.4 146.6-146.2 153.7-195.5a42.9 42.9 0 0 0-14.7-41.3c-7.7-5.8-13.6-8.1-196.1-68 0 0-80-26.4-81.1-26.9-19.4-7.5-41.5-.5-56.3 17.8-15.5 18.8-17.8 43.7-5.4 62.4l32.2 52.4c108.3 175.9 116.6 188.3 124.4 194.4 12 9.5 27.3 11.1 43.3 4.7m-94.3-452.8c207.3-50.2 215.4-52.9 223.5-58.3 12.6-8.5 18.9-22.6 17.8-39.8V571C914.2 520 825 387.6 781 366.1c-15.6-7.5-31.2-7-44.1 1.7-8 5.2-13.9 13.1-124.9 165l-50.7 69c-13.2 16.1-13.4 39.1-.5 58.9 13.4 20.5 36 30.4 56.7 24.7l-1 1.7a618 618 0 0 1 61.7-16.3M470.1 499.6c-3.6-82.2-28.3-448.1-31.2-465a43.7 43.7 0 0 0-33.4-30.7c-53-13.1-255.3 43.6-292.8 82.2-12.1 12.6-16.5 28-12.9 41.7 5.9 12.1 256.6 406.5 256.6 406.5 37 60.1 67.3 50.7 77.2 47.6 9.8-2.9 39.9-12.3 36.5-82.3" style="fill:#bf2519"/>
</svg>
