<svg xmlns="http://www.w3.org/2000/svg" fill="#454545" viewBox="0 0 490 158.3">
  <path d="M78.4 38.3h-18a9.6 9.6 0 0 1-9.6-9.7v-18C50.8 5.5 55 1 60.4 1h18c5.3 0 9.7 4.3 9.7 9.7v18a9.6 9.6 0 0 1-9.7 9.6z"/>
  <path d="M31.9 78.5h-20c-6 0-10.9-5-10.9-10.8V47.4c0-5.9 5-10.9 10.9-10.9H32c6 0 11 5 11 11v20.2a11 11 0 0 1-11.2 10.9z"/>
  <path d="M30.1 120.4H17.8a6.6 6.6 0 0 1-6.6-6.6v-12.3a6.6 6.6 0 0 1 6.6-6.6H30a6.6 6.6 0 0 1 6.6 6.6v12.3c0 3.7-3 6.6-6.6 6.6z"/>
  <path d="M63.1 159.3H48.5a8 8 0 0 1-8-7.9v-14.6a8 8 0 0 1 8-8h14.6a8 8 0 0 1 8 8v14.6c0 4.6-3.5 8-8 8zm53.4-113.6h-10c-3 0-5.4-2.4-5.4-5.4v-10c0-3 2.4-5.4 5.4-5.4h10c3 0 5.4 2.4 5.4 5.3v10.1c.3 2.8-2.3 5.4-5.4 5.4z"/>
  <path d="M337.8 52.4c3.2 0 5.7-2.7 5.7-5.8 0-3.2-2.6-5.8-5.7-5.8a6 6 0 0 0-6 5.8c0 3.1 2.6 5.8 6 5.8zm-212.6 62.1c-.8 1.3-2.2 2-3.9 2-.8 0-2-.1-2.6-.7a4.8 4.8 0 0 1-2.2-4.1c0-.8.2-1.6.7-2.3l13.4-21.2L117.2 67c-.5-.7-.7-1.6-.7-2.3a5 5 0 0 1 2.3-4.1c.8-.6 1.6-.7 2.4-.7 1.6 0 3.1.7 4.2 2l11 17.5 11.1-17.5c.8-1.3 2.4-2 4.2-2 .8 0 1.6.1 2.4.7 1.5.8 2.3 2.4 2.3 4.1 0 .8-.2 1.6-.7 2.3l-13.4 21.2 13.4 21.2c.5.7.7 1.5.7 2.3 0 1.6-.8 3.5-2.2 4.1-.8.6-1.7.7-2.6.7-1.7 0-3-.7-4-2l-11-17.3zm48.2-48.2a29.1 29.1 0 1 1 19.5 50.8c-7.4 0-14.4-2.9-19.5-7.4v24.8c0 2.4-2.3 4.6-4.8 4.6-2.3 0-4.9-2.2-4.9-4.6V64.1c0-2.5 2.3-4.6 4.9-4.6 2.7 0 4.8 2.1 4.8 4.6zm19.2 2.3c-10.9 0-19.5 8.6-19.5 19.5s8.6 19.4 19.5 19.4 19.5-8.6 19.5-19.4a19.1 19.1 0 0 0-19.5-19.5zm111.6 14.2V112c0 2.4-2.2 4.5-4.8 4.5-2.7 0-4.8-2.1-4.8-4.5V64c0-2.4 2.3-4.5 4.8-4.5 2.3 0 4.6 2 4.8 4.4 4-3 9-4.8 14.5-4.8 3 0 5.3 2.3 5.3 4.8 0 2.7-2.3 5-5.3 5-7.5.1-14.5 2.7-14.5 14zm33.6-23.3c-2.7 0-4.9 2.1-4.9 4.6v48c0 2.4 2.3 4.6 4.9 4.6 2.3 0 4.8-2.2 4.8-4.6V64a5 5 0 0 0-4.8-4.6zm61 4.6c0-2.5 2.3-4.6 4.9-4.6 2.2 0 4.8 2.1 4.8 4.6v48c0 2.4-2.3 4.6-4.8 4.6-2.7 0-4.9-2.2-4.9-4.6v-2.4A29 29 0 1 1 379.3 59a30 30 0 0 1 19.5 7.3zm-19.3 43.3c10.9 0 19.5-8.6 19.5-19.5s-8.6-19.4-19.5-19.4-19.4 8.6-19.4 19.4c0 11 8.5 19.5 19.4 19.5zm77.7-24c0-8-6.8-15-14.9-15-7.8 0-14.9 3.2-14.9 14.6v29c0 2.5-2.3 4.7-4.8 4.7-2.7 0-4.9-2.2-4.9-4.6V64c0-2.5 2.3-4.6 4.9-4.6 2.3 0 4.5 2 4.8 4.4 4.2-3 9.3-4.8 14.8-4.8 13 0 24.7 10.2 24.7 23v29.8c0 2.5-2.3 4.6-4.9 4.6-2.7 0-4.8-2.1-4.8-4.6zm-343.5 3c-.1-14.7-13.3-27.2-29-27.2a29 29 0 1 0 0 58.1c7.8 0 15-3 20.3-8.2a5 5 0 0 0 1.6-3.6c0-2.7-2.3-4.8-4.8-4.8-1.5 0-2.8.8-3.8 2-3.2 3.5-8 5-13.1 5-9.7 0-17.6-6.5-19.2-15.7h43.7l.5-.2a6 6 0 0 0 3.8-5.3zM85 68.7c8.7 0 16 5.7 18.3 13.4h-37A19.5 19.5 0 0 1 85 68.6zm201.8 17.9c-.2-14.8-13.5-27.3-29-27.3a29 29 0 1 0 0 58.1c7.8 0 14.9-3 20.2-8.2a5 5 0 0 0 1.6-3.6c0-2.7-2.2-4.8-4.8-4.8-1.5 0-2.8.8-3.7 2-3.3 3.5-8 5-13.2 5-9.7 0-17.6-6.5-19.2-15.7h44c2.2-1 4-3.1 4-5.5zm-29-17.9c8.7 0 16 5.7 18.4 13.4h-37a19.2 19.2 0 0 1 18.6-13.4zm219.2 48c-.5 0-.8-.2-.8-.8v-8h-1.7c-.6 0-.8-.3-.8-.8s.2-.8.8-.8h5.2c.5 0 .8.3.8.8s-.3.8-.8.8H478v8c-.2.4-.4.9-1 .9zm9.4 0c-.5 0-.7-.2-.8-.6l-2.3-6.6v6.4c0 .6-.2.9-.8.9s-.8-.3-.8-.9v-8.5c0-.7.6-1.2 1.2-1.2s1 .2 1.2.8l2.3 6.7 2.3-6.7c.1-.6.7-.8 1.2-.8.7 0 1.2.5 1.2 1.2v8.5c0 .6-.3.9-.8.9s-.8-.3-.8-.9v-6.4l-1.3 3.9-1 2.7c-.1.5-.5.7-.8.7z"/>
</svg>
