<svg xmlns="http://www.w3.org/2000/svg" viewBox="0 0 450 90" fill="#454545">
    <path d="M33 13c-5 0-6 2-6 7v8h13l-1 13H27v40H11V41H0V28h11v-8C11 7 16 0 31 0l10 1v12"/>
    <path d="M41 53c0-15 7-26 22-26 8 0 13 4 16 9v-8h15v53H78v-8c-2 6-7 10-15 10-15 0-22-12-22-26m17 0c0 8 2 13 10 13 7 0 10-5 10-12v-6c0-7-4-12-10-12-8 0-10 5-10 13v4z"/>
    <path d="M127 27c6 0 12 1 16 4l-4 11-11-2c-8 0-12 5-12 13v3c0 9 4 14 12 14l11-2 4 11c-4 2-9 4-16 4-19 0-27-11-27-27v-2c0-17 8-27 27-27"/>
    <path d="M145 57v-5c0-15 8-25 26-25 16 0 24 10 24 25v8h-34c0 8 4 11 12 11l18-3 2 11c-4 2-12 4-20 4-21-1-28-11-28-26m16-7h19v-2c0-5-2-10-9-10s-10 5-10 12"/>
    <path d="M254 57c0 14-7 26-22 26-8 0-13-4-15-10v8h-16V2l17-2v36c2-5 7-9 15-9 14 0 21 11 21 26m-16 0c0-8-3-13-10-13s-10 4-10 12v6c0 7 3 12 10 12s10-6 10-13v-4z"/>
    <path d="M260 56v-3c0-15 8-26 26-26s26 11 26 26v3c0 15-8 26-26 26s-26-10-26-26m36-4c0-7-2-12-10-12s-10 5-10 12v5c0 7 3 13 10 13s10-6 10-13v-5z"/>
    <path d="M318 56v-3c0-15 9-26 26-26s27 11 27 26v3c0 15-9 26-27 26s-26-10-26-26m37-4c0-7-3-12-11-12s-10 5-10 12v5c0 7 3 13 10 13s11-6 11-13v-5z"/>
    <path d="m393 54 16-26h17l-17 27 17 26h-17l-16-26v26h-16V2l16-2"/>
</svg>
