<svg xmlns="http://www.w3.org/2000/svg" viewBox="0 0 600 200" fill="#454545">
  <path d="M73 0h6c18 0 36 8 49 21l-14 14a54 54 0 0 0-67-5c-13 8-22 23-24 38s2 31 12 43 24 19 39 19c14 1 29-3 39-13 8-7 12-18 13-28H76V69h70c4 22-2 47-18 63a68 68 0 0 1-43 19 78 78 0 0 1-80-50 74 74 0 0 1 27-86C44 6 58 1 73 0z"/>
  <path d="M474 5h22v143h-22V5z"/>
  <path d="M194 55c13-3 27 0 38 8a49 49 0 0 1 9 70 49 49 0 0 1-41 18c-14-1-28-8-36-20-10-12-12-30-7-45 5-16 20-28 37-31m3 19c-6 1-11 4-14 9-10 11-10 30 1 41a27 27 0 0 0 43-6c6-12 4-29-6-38-6-6-16-8-24-6z"/>
  <path d="M300 55c15-3 31 1 42 12 19 16 21 47 5 66-9 12-25 19-40 18a48 48 0 0 1-44-66c6-16 20-27 36-30m3 19c-5 1-10 4-14 9-9 11-9 30 2 40a27 27 0 0 0 43-5c6-12 4-29-6-38-7-6-16-8-25-6z"/>
  <path d="M389 61c12-8 27-10 40-3l10 7v-8h20v88c0 13-3 27-13 37a48 48 0 0 1-76-16l18-8c4 8 11 15 20 17s19-1 25-8c6-8 6-18 6-27-5 4-10 8-17 10-13 3-29-1-39-11a49 49 0 0 1 6-79m21 13c-6 1-12 5-16 9-9 12-9 29 0 40 6 7 15 11 23 10s15-6 19-13c7-12 6-28-3-38-6-6-15-9-23-8z"/>
  <path d="M522 66c12-12 30-15 45-10 15 6 24 20 29 34l-65 27c3 6 8 11 14 13 8 3 19 2 26-4l8-8 16 11a48 48 0 0 1-77 5 51 51 0 0 1 3-68m11 18c-3 5-5 11-4 17l43-18c-2-6-8-9-14-10-10-2-20 3-25 11z"/>
</svg>
