<svg xmlns="http://www.w3.org/2000/svg" fill="#454545" viewBox="0 0 267.52 65.25">
  <path d="M263.04 56.41a4.42 4.42 0 1 0 .09 0zm0 8.33a3.87 3.87 0 1 1 3.81-3.94v.07a3.8 3.8 0 0 1-3.7 3.87h-.1m-16.97-9.54h-9.6V40.17c0-3.58-.06-8.2-4.99-8.2-5 0-5.76 3.9-5.76 7.94v15.3h-9.6V24.28h9.21v4.22h.13a10.1 10.1 0 0 1 9.1-5c9.72 0 11.52 6.4 11.52 14.73zM205.3 20.06a5.57 5.57 0 1 1 5.57-5.57 5.57 5.57 0 0 1-5.57 5.57m4.8 35.14h-9.6V24.3h9.6zM250.87 0h-55.21a4.73 4.73 0 0 0-4.78 4.67v55.44a4.73 4.73 0 0 0 4.78 4.68h55.21a4.74 4.74 0 0 0 4.8-4.68V4.67a4.74 4.74 0 0 0-4.8-4.67m-86.12 31.75c-4.8 0-7.68 3.2-7.68 7.87s2.88 7.88 7.68 7.88 7.69-3.2 7.69-7.88-2.88-7.87-7.69-7.87m16.52 23.44h-8.83v-4.1h-.13a12.07 12.07 0 0 1-9.55 4.86c-9.22 0-15.3-6.65-15.3-16.07 0-8.64 5.38-16.58 14.22-16.58 3.97 0 7.68 1.09 9.86 4.1h.12V9.58h9.61zm-46.13-19.05a5.76 5.76 0 0 0-5.9-5.9 6.4 6.4 0 0 0-6.78 5.9zm8.13 13.7a16.9 16.9 0 0 1-13.13 6.15c-9.6 0-17.29-6.4-17.29-16.33s7.69-16.33 17.29-16.33c8.97 0 14.6 6.4 14.6 16.33v3h-22.28a7.17 7.17 0 0 0 7.23 6.03 8.2 8.2 0 0 0 6.85-3.78zM47.83 24.28h9.22v4.22h.13a10.09 10.09 0 0 1 9.1-4.99c9.73 0 11.52 6.4 11.52 14.73v16.95h-9.6V40.16c0-3.59-.06-8.2-5-8.2-4.99 0-5.76 3.9-5.76 7.94v15.29h-9.6zm34.84-14.7h9.6v27.27l10.88-12.59h11.77l-12.6 14.31 12.33 16.64H102.6l-10.2-15.29h-.12V55.2h-9.6zM32.9 24.28h9.6v30.91h-9.6zm4.8-15.37a5.57 5.57 0 1 1-5.57 5.57 5.57 5.57 0 0 1 5.57-5.57M0 9.59h10v36.4h18.5v9.22H0zM263.74 61.1a1.2 1.2 0 0 0 1.21-1.27c0-.9-.54-1.33-1.65-1.33h-1.8v4.71h.67v-2.05h.84l.02.02 1.29 2.03h.72l-1.39-2.1zm-.78-.47h-.78v-1.6h1c.5 0 1.1.09 1.1.76 0 .77-.6.84-1.32.84"/>
</svg>
