<svg xmlns="http://www.w3.org/2000/svg" id="Layer_1" data-name="Layer 1" viewBox="0 0 174 134.9">
  <defs>
    <style>
      .cls-1,.cls-2{fill:#303a44;stroke:#303a44;stroke-linecap:round;stroke-linejoin:round;stroke-width:5px}.cls-2{fill:none;stroke:#b10216}
    </style>
  </defs>
  <path d="m45 121.5 44-44 8.5 8.3L53.3 130z" class="cls-1"/>
  <path d="m107.5 60.7 13.9-13.9 41-41c8.8 8.7 8.8 23 0 31.7l-25 25-13.9 14-11.5-7.2-6.2 6-6.5-6.5" class="cls-2"/>
  <circle cx="43.9" cy="24" r="2.9" class="cls-2"/>
  <path d="m118.1 71.4-11.6-11.7L89 42.4 57.4 10.6a19 19 0 0 0-26.8 0L5 36l62.6 62.6 30.7-30.8L110 79.5l8.1-8.1Z" class="cls-2"/>
  <path d="M78.2 88 22 31.8" style="fill:none;stroke:#b10216;stroke-linejoin:round;stroke-width:5px"/>
  <path d="m119.4 70.1-11.7 11.7c1.5-1.5 5-.5 7.7 2.2s3.6 6.1 2.1 7.7l2.9 2.8c1.5-1.5 5-.5 7.7 2.2s3.7 6.1 2.1 7.7l2.9 2.8c1.5-1.5 5-.5 7.7 2.2s3.7 6.1 2.1 7.7l2.9 2.8c1.5-1.5 5-.5 7.7 2.2s3.7 6.1 2.1 7.7l11.7-11.7-47.9-48Z" class="cls-1"/>
</svg>
