<svg xmlns="http://www.w3.org/2000/svg" id="Layer_1" data-name="Layer 1" viewBox="0 0 198 166.5">
  <defs>
    <style>
      .cls-1{fill:none;stroke:#b10216;stroke-miterlimit:4;stroke-width:4px}.cls-2,.cls-3{fill:#303a44;stroke-width:0}.cls-3{fill:#fff}
    </style>
  </defs>
  <path d="M68 159.5h62" class="cls-1"/>
  <path d="M163.8 69.8a5 5 0 0 0-1.5-1.5L98 6 35.6 68.3a5 5 0 0 0-2.3 4.2v82a5 5 0 0 0 5 5h121.4a5 5 0 0 0 5-5v-82c0-1-.3-2-.9-2.7ZM65.2 29.6V18.3a5 5 0 0 0-5-5H48.5a5 5 0 0 0-5 5v33.1l21.7-21.6Z" class="cls-2"/>
  <path d="M115 154.5v-40a5 5 0 0 0-5-5H88a5 5 0 0 0-5 5v40a5 5 0 0 1-5 5h42a5 5 0 0 1-5-5Z" class="cls-3"/>
  <circle cx="99" cy="53" r="12" class="cls-3"/>
  <path d="M78 149.5h42M5 99 95.5 8.5c2-2 5-2 7 0L193 99" class="cls-1"/>
</svg>
