<svg xmlns="http://www.w3.org/2000/svg" viewBox="0 0 2356 2355">
  <path fill="#B10216" d="M1482.7 333.3c-3-53.6-5-107.3.1-160a805.8 805.8 0 0 1 36.3-173c-48.3 27.9-117.3 72.1-191.3 137.3-80 70.3-132.1 116.2-167 194-43.3 96.6-34.2 185.2-26 264.7a787 787 0 0 0 104.4 315.6s110.3-108.3 119-118.4c42.9-49.7 93.3-101.2 115.2-164 23-66.2 17.9-131.9 14.8-200.5-1.4-31.7-3.7-63.7-5.5-95.7ZM1379 255.7c-4.7 13.6-20.5 59.3-49.8 159.9a4177 4177 0 0 0-36.2 129.5 1558.7 1558.7 0 0 0-44.1 297.4c-16.9-82.7-40.5-258.4 32.6-456.2a816.1 816.1 0 0 1 138.5-238.9c-10.2 25-25 62.4-41 108.3Z"/>
  <path fill="#333" d="M796.5 365.2c-40-35.7-79.4-72.3-113-113.2a806.1 806.1 0 0 1-96.7-148c-14.4 53.8-32 133.9-38.2 232.4-6.9 106.2-11.3 175.6 19 255.2 37.8 99 106.9 155.2 168.8 205.6a786.6 786.6 0 0 0 297.1 149.3s1.3-154.5.4-167.8c-4.9-65.5-5.6-137.6-34.5-197.5C968.8 518.1 918.8 475.4 868 429c-23.4-21.4-47.6-42.4-71.5-63.8Zm-128 18.4a3140 3140 0 0 0 77.8 148.2c20.2 36.8 45.8 83.3 66 117.2a1560 1560 0 0 0 179 241.4C921 844 780.2 736.4 692 544.8a816.2 816.2 0 0 1-71-266.8c10.5 25 26.4 61.7 47.6 105.6Z"/>
  <path fill="#B10216" d="M333.9 873c-53.6 3-107.3 5-160-.2a806 806 0 0 1-173-36.3A1188 1188 0 0 0 138.2 1028c70.3 80 116.2 132.1 194 167 96.6 43.2 185.2 34.1 264.7 26a787 787 0 0 0 315.6-104.5s-108.3-110.2-118.4-119c-49.7-42.8-101.2-93.3-164-115.2-66.2-23-131.9-17.8-200.5-14.7-31.7 1.4-63.7 3.6-95.7 5.5Zm-77.5 103.5a3161 3161 0 0 0 159.8 49.8 4177 4177 0 0 0 129.6 36.2 1558.7 1558.7 0 0 0 297.3 44.2c-82.7 16.8-258.4 40.4-456.2-32.7A816 816 0 0 1 148 935.5c25.1 10.3 62.4 25 108.4 41Z"/>
  <path fill="#333" d="M365.8 1559.1c-35.7 40-72.3 79.4-113.2 113a806 806 0 0 1-148 96.7c53.9 14.5 134 32 232.4 38.3 106.2 6.8 175.6 11.2 255.3-19.1 98.9-37.8 155-106.9 205.5-168.8a786.5 786.5 0 0 0 149.4-297c0-.1-154.6-1.4-167.9-.4-65.4 4.8-137.5 5.5-197.5 34.5-63 30.5-105.8 80.6-152.2 131.3-21.4 23.4-42.4 47.6-63.8 71.6Zm18.4 128.1c13-6.2 56.4-27.4 148.2-77.8 36.9-20.3 83.4-45.8 117.3-66 58.2-34.6 142-90.6 241.4-179-46.5 70.3-154 211.2-345.6 299.4a816 816 0 0 1-266.9 71c25-10.5 61.8-26.5 105.6-47.6Z"/>
  <path fill="#B10216" d="M873.6 2021.8c3 53.5 5 107.2-.2 160a806 806 0 0 1-36.3 172.9 1188 1188 0 0 0 191.4-137.3c80-70.3 132.1-116.2 167-194 43.2-96.6 34.1-185.2 26-264.6A787 787 0 0 0 1117 1443s-110.2 108.3-118.9 118.4c-43 49.7-93.4 101.2-115.3 164-23 66.3-17.8 132-14.7 200.6 1.4 31.6 3.6 63.6 5.5 95.7Zm103.6 77.5c4.7-13.6 20.5-59.2 49.7-159.9 11.8-40.3 26.6-91.3 36.3-129.5a1558.7 1558.7 0 0 0 44-297.3c17 82.6 40.5 258.3-32.5 456.1a816 816 0 0 1-138.6 239c10.3-25.2 25-62.4 41-108.4Z"/>
  <path fill="#333" d="M1559.8 1989.8c40 35.7 79.3 72.4 113 113.3a806 806 0 0 1 96.6 148c14.5-54 32-134 38.3-232.5 6.8-106.2 11.2-175.5-19.1-255.2-37.8-99-106.8-155.1-168.7-205.6a786.5 786.5 0 0 0-297.2-149.3s-1.3 154.5-.3 167.8c4.8 65.5 5.5 137.6 34.5 197.5 30.5 63.1 80.6 105.9 131.3 152.3 23.4 21.3 47.6 42.4 71.6 63.7Zm128-18.4c-6.2-13-27.4-56.4-77.8-148.2a4168 4168 0 0 0-66-117.2 1560 1560 0 0 0-179-241.4c70.3 46.5 211.2 154 299.4 345.6a816.1 816.1 0 0 1 71 266.8c-10.5-25-26.5-61.7-47.6-105.6Z"/>
  <path fill="#B10216" d="M2022.4 1482c53.5-3 107.2-5 160 .2a805.9 805.9 0 0 1 173 36.3c-28-48.3-72.2-117.3-137.4-191.4-70.2-80-116.2-132-194-167-96.6-43.2-185.2-34.1-264.6-26a787 787 0 0 0-315.7 104.5s108.3 110.2 118.4 119c49.8 42.9 101.2 93.3 164 115.2 66.3 23 132 17.9 200.6 14.8 31.7-1.4 63.7-3.7 95.7-5.5Zm77.5-103.5c-13.6-4.8-59.2-20.5-159.8-49.8a4181.6 4181.6 0 0 0-129.6-36.2 1558.7 1558.7 0 0 0-297.3-44.1c82.6-17 258.3-40.5 456.2 32.6a816.1 816.1 0 0 1 238.8 138.5c-25-10.3-62.3-25-108.3-41Z"/>
  <path fill="#333" d="M1990.4 795.9c35.7-40 72.4-79.4 113.3-113a806 806 0 0 1 148-96.7c-54-14.4-134-32-232.5-38.2-106.2-6.9-175.5-11.3-255.2 19-99 37.8-155.1 106.9-205.6 168.8a786.5 786.5 0 0 0-149.3 297.1s154.5 1.3 167.8.4c65.5-4.9 137.6-5.6 197.5-34.5 63.1-30.6 105.9-80.6 152.3-131.4 21.3-23.4 42.4-47.6 63.7-71.5Zm-18.4-128c-13 6.2-56.4 27.3-148.2 77.8a4168.2 4168.2 0 0 0-117.2 66 1560 1560 0 0 0-241.4 179c46.5-70.3 154-211.3 345.6-299.5a816.2 816.2 0 0 1 266.9-71c-25 10.6-61.8 26.5-105.7 47.7Z"/>
</svg>
