<svg xmlns="http://www.w3.org/2000/svg" width="100%" height="auto" viewBox="0 0 4047 800" preserveAspectRatio="xMidYMid meet" style="display: block;" fill="none">
  <path fill="#B10216" d="M503.5 113.2c-1-18.2-1.7-36.4 0-54.3 2-20 6-39.7 12.3-58.8a403.2 403.2 0 0 0-65 46.6c-27.1 24-44.8 39.5-56.6 66-14.7 32.8-11.7 62.9-8.9 89.9 4 37.8 16.2 74.4 35.5 107.2 0 0 37.4-36.8 40.4-40.2 14.6-17 31.7-34.4 39.1-55.8 7.8-22.4 6-44.8 5-68-.4-10.8-1.2-21.7-1.8-32.6ZM468.3 87c-1.6 4.6-7 20.1-17 54.3a1419 1419 0 0 0-12.3 44c-8.2 33-13.2 67-15 101-5.7-28-13.7-87.8 11.1-155 11-29.5 26.9-57 47-81.1-3.4 8.5-8.4 21.2-13.8 36.8Z"/>
  <path fill="#fff" d="M270.5 124a273.8 273.8 0 0 1-71.2-88.7 403 403 0 0 0-13 79c-2.4 36-3.9 59.6 6.4 86.7 12.9 33.6 36.3 52.7 57.4 69.8a267 267 0 0 0 100.8 50.7s.5-52.5.2-57c-1.7-22.2-2-46.7-11.7-67-10.4-21.5-27.4-36-44.7-51.8l-24.2-21.6Zm-43.5 6.3c8.4 17 17.2 33.8 26.4 50.4 6.9 12.5 15.6 28.3 22.4 39.8 17.6 29.2 38 56.7 60.8 82A284.4 284.4 0 0 1 235 185a277.3 277.3 0 0 1-24.1-90.7c3.5 8.5 9 21 16.1 36Z"/>
  <path fill="#B10216" d="M113.4 296.6a273.5 273.5 0 0 1-113-12.4c13.3 23.1 28.9 45 46.5 65 23.9 27.2 39.5 44.9 65.9 56.7 32.8 14.7 62.9 11.6 89.9 8.9 37.8-4 74.4-16.2 107.1-35.5 0 0-36.7-37.5-40.2-40.4-16.8-14.6-34.3-31.7-55.6-39.2-22.5-7.8-44.8-6-68.1-5-10.8.5-21.7 1.2-32.5 1.9ZM87 331.7c17.9 6.1 36 11.8 54.2 17 14.6 4.3 29.3 8.4 44 12.2a529 529 0 0 0 101 15c-28.1 5.8-87.8 13.8-155-11a277 277 0 0 1-81-47.1c8.5 3.5 21.1 8.5 36.8 14Z"/>
  <path fill="#fff" d="M124.2 529.6a273.7 273.7 0 0 1-88.7 71.2 403 403 0 0 0 79 13c36 2.4 59.6 3.9 86.6-6.4 33.6-12.9 52.7-36.3 69.8-57.4 23.9-29.6 41.2-64 50.7-100.8 0 0-52.5-.5-57-.2-22.2 1.6-46.7 1.9-67 11.7-21.4 10.4-36 27.4-51.7 44.6-7.3 8-14.4 16.2-21.7 24.4Zm6.3 43.5c4.4-2 19.1-9.3 50.3-26.4 12.5-6.9 28.3-15.5 39.8-22.4a534.2 534.2 0 0 0 82-60.8 284.6 284.6 0 0 1-117.4 101.7 277 277 0 0 1-90.6 24.1c8.5-3.5 21-9 35.9-16.2Z"/>
  <path fill="#B10216" d="M296.6 686.8a273.9 273.9 0 0 1-12.4 113c23.2-13.3 45-28.9 65-46.5 27.2-24 44.9-39.5 56.7-66 14.7-32.8 11.6-62.9 8.9-89.8-4-38-16.2-74.5-35.5-107.3 0 0-37.4 36.8-40.4 40.2-14.6 16.9-31.7 34.4-39.1 55.7-7.8 22.5-6 44.9-5 68.2.4 10.7 1.2 21.6 1.8 32.5Zm35.2 26.3c1.6-4.6 7-20 16.9-54.3 4-13.7 9-31 12.3-44 8.2-33 13.2-66.9 15-101 5.7 28 13.7 87.8-11 155-11 29.5-27 57-47.1 81.2 3.5-8.6 8.4-21.2 13.9-36.9Z"/>
  <path fill="#fff" d="M529.6 676a273.8 273.8 0 0 1 71.2 88.8c5-18.4 10.9-45.6 13-79 2.3-36.2 3.8-59.7-6.5-86.8-12.8-33.6-36.2-52.7-57.2-69.8a267 267 0 0 0-101-50.7s-.4 52.5 0 57c1.6 22.2 1.8 46.7 11.6 67 10.4 21.5 27.4 36 44.6 51.8l24.3 21.6Zm43.5-6.3c-2.1-4.4-9.3-19.2-26.4-50.4a1418 1418 0 0 0-22.4-39.8 529.9 529.9 0 0 0-60.8-82A284.6 284.6 0 0 1 565.2 615a277.3 277.3 0 0 1 24 90.7c-3.5-8.5-9-21-16-36Z"/>
  <path fill="#B10216" d="M686.7 503.4a273.5 273.5 0 0 1 113 12.4 407.6 407.6 0 0 0-46.6-65c-23.8-27.2-39.4-44.8-65.8-56.7-32.8-14.7-63-11.6-89.9-8.8-37.8 4-74.4 16.1-107.2 35.5 0 0 36.8 37.4 40.2 40.4 17 14.6 34.4 31.7 55.7 39.1 22.5 7.8 44.8 6 68.1 5 10.8-.4 21.7-1.2 32.5-1.8Zm26.3-35.1c-4.6-1.7-20-7-54.2-17a1420 1420 0 0 0-44-12.2c-33.1-8.3-67-13.3-101-15a284 284 0 0 1 155 11c29.4 11 56.9 27 81 47.1-8.5-3.5-21.1-8.5-36.8-14Z"/>
  <path fill="#fff" d="M675.9 270.4a273.7 273.7 0 0 1 88.7-71.2 403.8 403.8 0 0 0-79-13c-36-2.4-59.6-3.9-86.6 6.4-33.6 12.9-52.7 36.3-69.8 57.4a267.2 267.2 0 0 0-50.7 100.9s52.4.4 57 .1c22.2-1.6 46.7-1.9 67-11.7 21.4-10.4 36-27.4 51.7-44.6 7.3-8 14.4-16.2 21.7-24.3Zm-6.3-43.5a1021 1021 0 0 0-50.3 26.4c-13.4 7.3-26.7 14.8-39.8 22.4a529.7 529.7 0 0 0-82 60.8A284.6 284.6 0 0 1 615 234.8a277 277 0 0 1 90.6-24.1c-8.5 3.6-21 9-35.9 16.2Z"/>
  <path fill="#fff" d="M900.1 256.4v-39H1173v39h-114.4V581h-44V256.4H900ZM1240.8 581V217.4h122.9c28.4 0 51.7 4.8 70 14.5a92.8 92.8 0 0 1 40.4 39.6c8.8 16.8 13.2 36 13.2 57.4s-4.4 40.4-13.2 57a92.5 92.5 0 0 1-40.3 39c-18 9.4-41.2 14-69.4 14H1265v-39.7h98c19.4 0 35-2.9 46.9-8.5a53.8 53.8 0 0 0 25.9-24.2 81 81 0 0 0 8.2-37.6c0-14.6-2.8-27.3-8.2-38.2a55.6 55.6 0 0 0-26.1-25.2c-12-6-27.8-9-47.4-9h-77.4V581h-44ZM1412 417.6l89.5 163.4h-51.2l-88-163.4h49.7Zm387.3-200.2h44V458c0 24.9-5.8 47-17.5 66.6a123 123 0 0 1-49.2 46 158.2 158.2 0 0 1-74.6 16.7c-28.5 0-53.4-5.6-74.6-16.7a124.3 124.3 0 0 1-49.3-46 127.9 127.9 0 0 1-17.4-66.6V217.4h44v237.2c0 17.7 3.9 33.5 11.7 47.4a84 84 0 0 0 33.4 32.5 109 109 0 0 0 52.2 11.7c20.2 0 37.6-4 52.2-11.7a82.6 82.6 0 0 0 33.4-32.5 94.8 94.8 0 0 0 11.7-47.4V217.4Zm330.8 90.9c-2.1-18-10.7-32-25.9-42a99.4 99.4 0 0 0-55.8-14.8 106 106 0 0 0-42.2 7.8 67.5 67.5 0 0 0-28 21.5 51.5 51.5 0 0 0-10 31c0 9.7 2.3 18 7 25a61.5 61.5 0 0 0 18 17.3 130 130 0 0 0 23.1 11.2c8 2.8 15.5 5.1 22.2 6.9l37 10c9.4 2.4 20 5.9 31.6 10.2a146 146 0 0 1 33.5 18 83 83 0 0 1 37.1 72c0 19.5-5.1 37.3-15.4 53.1a105.2 105.2 0 0 1-44.8 37.9c-19.5 9.3-43.2 14-71.2 14-26 0-48.6-4.2-67.6-12.6-19-8.4-33.9-20.1-44.8-35.2a100.3 100.3 0 0 1-18.3-52.4h45.5a57 57 0 0 0 13.8 34.1 75 75 0 0 0 31 20 125 125 0 0 0 40.4 6.3c16.8 0 32-2.7 45.3-8.1a77.7 77.7 0 0 0 31.8-23.1 54.7 54.7 0 0 0 11.7-34.8c0-12.1-3.4-22-10.1-29.5a74.4 74.4 0 0 0-26.7-18.5c-11-4.7-22.9-8.9-35.6-12.4l-44.8-12.8a166.6 166.6 0 0 1-67.5-35 76.8 76.8 0 0 1-24.8-59.4c0-20.4 5.5-38.2 16.5-53.3 11.1-15.3 26-27.1 44.7-35.5a151 151 0 0 1 63-12.8c23.5 0 44.3 4.2 62.6 12.6a108.1 108.1 0 0 1 43.3 34 85 85 0 0 1 17 49.3h-42.6Zm100.1-51.9v-39H2503v39h-114.4V581h-44V256.4h-114.4Z"/>
  <path fill="#B10216" d="m2575.7 217.4 113.6 320.5h3.2l113.7-320.5h34.8L2708.7 581h-35.5l-132.3-363.6h34.8ZM2872.6 581h-34.8L2970 217.4h35.5L3137.9 581H3103l-114-320.5h-2.5l-114 320.5Zm25-139.4H3078v29.8h-180.4v-29.8ZM3200.2 581V217.4h33.2v333.8h173.3V581h-206.5Zm281.2 0V217.4h211v29.8h-177.8V384h166.6v29.8h-166.6v137.3H3696V581h-214.5Zm274.9-333.8v-29.8h263.6v29.8h-115.2V581h-33.2V247.2h-115.2Z"/>
  <path fill="#333" fill-opacity=".2" d="m2575.7 217.4 113.6 320.5h3.2l113.7-320.5h34.8L2708.7 581h-35.5l-132.3-363.6h34.8ZM2872.6 581h-34.8L2970 217.4h35.5L3137.9 581H3103l-114-320.5h-2.5l-114 320.5Zm25-139.4H3078v29.8h-180.4v-29.8ZM3200.2 581V217.4h33.2v333.8h173.3V581h-206.5Zm281.2 0V217.4h211v29.8h-177.8V384h166.6v29.8h-166.6v137.3H3696V581h-214.5Zm274.9-333.8v-29.8h263.6v29.8h-115.2V581h-33.2V247.2h-115.2Z"/>
</svg>
